<svg width="121" height="48" viewBox="0 0 121 48" fill="none" xmlns="http://www.w3.org/2000/svg">
<rect y="1" width="121" height="47" rx="8" fill="#FFC700"/>
<path d="M18.1681 36V17.64H21.7891V22.111L21.3471 21.533C21.5738 20.921 21.8741 20.3657 22.2481 19.867C22.6335 19.357 23.0925 18.9377 23.6251 18.609C24.0785 18.303 24.5771 18.065 25.1211 17.895C25.6765 17.7137 26.2431 17.606 26.8211 17.572C27.3991 17.5267 27.9601 17.5493 28.5041 17.64V21.465C27.9601 21.3063 27.3311 21.2553 26.6171 21.312C25.9145 21.3687 25.2798 21.567 24.7131 21.907C24.1465 22.213 23.6818 22.604 23.3191 23.08C22.9678 23.556 22.7071 24.1 22.5371 24.712C22.3671 25.3127 22.2821 25.9643 22.2821 26.667V36H18.1681ZM36.4506 36.51C35.1246 36.51 34.0026 36.2607 33.0846 35.762C32.1666 35.252 31.4696 34.5777 30.9936 33.739C30.5289 32.9003 30.2966 31.9767 30.2966 30.968C30.2966 30.084 30.4439 29.2907 30.7386 28.588C31.0333 27.874 31.4866 27.262 32.0986 26.752C32.7106 26.2307 33.5039 25.8057 34.4786 25.477C35.2153 25.239 36.0766 25.0237 37.0626 24.831C38.0599 24.6383 39.1366 24.4627 40.2926 24.304C41.4599 24.134 42.6783 23.9527 43.9476 23.76L42.4856 24.593C42.4969 23.3237 42.2136 22.3887 41.6356 21.788C41.0576 21.1873 40.0829 20.887 38.7116 20.887C37.8843 20.887 37.0853 21.0797 36.3146 21.465C35.5439 21.8503 35.0056 22.5133 34.6996 23.454L30.9596 22.281C31.4129 20.7283 32.2743 19.4817 33.5436 18.541C34.8243 17.6003 36.5469 17.13 38.7116 17.13C40.3436 17.13 41.7773 17.3963 43.0126 17.929C44.2593 18.4617 45.1829 19.3343 45.7836 20.547C46.1123 21.193 46.3106 21.856 46.3786 22.536C46.4466 23.2047 46.4806 23.9357 46.4806 24.729V36H42.8936V32.022L43.4886 32.668C42.6613 33.994 41.6923 34.9687 40.5816 35.592C39.4823 36.204 38.1053 36.51 36.4506 36.51ZM37.2666 33.246C38.1959 33.246 38.9893 33.0817 39.6466 32.753C40.3039 32.4243 40.8253 32.022 41.2106 31.546C41.6073 31.07 41.8736 30.6223 42.0096 30.203C42.2249 29.6817 42.3439 29.0867 42.3666 28.418C42.4006 27.738 42.4176 27.1883 42.4176 26.769L43.6756 27.143C42.4403 27.3357 41.3806 27.5057 40.4966 27.653C39.6126 27.8003 38.8533 27.942 38.2186 28.078C37.5839 28.2027 37.0229 28.3443 36.5356 28.503C36.0596 28.673 35.6573 28.8713 35.3286 29.098C34.9999 29.3247 34.7449 29.5853 34.5636 29.88C34.3936 30.1747 34.3086 30.5203 34.3086 30.917C34.3086 31.3703 34.4219 31.7727 34.6486 32.124C34.8753 32.464 35.2039 32.736 35.6346 32.94C36.0766 33.144 36.6206 33.246 37.2666 33.246ZM72.2074 20.853V17.64H76.7974V20.853H72.2074ZM63.9454 36V17.351C63.9454 16.8863 63.9624 16.3763 63.9964 15.821C64.0304 15.2543 64.1268 14.6933 64.2854 14.138C64.4441 13.5827 64.7331 13.0783 65.1524 12.625C65.6738 12.047 66.2348 11.6503 66.8354 11.435C67.4474 11.2083 68.0481 11.0837 68.6374 11.061C69.2268 11.027 69.7424 11.01 70.1844 11.01H72.4794V14.342H70.3544C69.5724 14.342 68.9888 14.5403 68.6034 14.937C68.2294 15.3223 68.0424 15.8323 68.0424 16.467V36H63.9454ZM60.9874 20.853V17.64H72.4794V20.853H60.9874ZM76.5934 36V11.01H80.6904V36H76.5934ZM52.5044 36V17.351C52.5044 16.8863 52.5214 16.3763 52.5554 15.821C52.5894 15.2543 52.6858 14.6933 52.8444 14.138C53.0031 13.5827 53.2921 13.0783 53.7114 12.625C54.2328 12.047 54.7938 11.6503 55.3944 11.435C56.0064 11.2083 56.6071 11.0837 57.1964 11.061C57.7858 11.027 58.3014 11.01 58.7434 11.01H61.0384V14.342H58.9134C58.1314 14.342 57.5478 14.5403 57.1624 14.937C56.7884 15.3223 56.6014 15.8323 56.6014 16.467V36H52.5044ZM49.5464 20.853V17.64H61.0384V20.853H49.5464ZM94.1499 36.51C92.2912 36.51 90.6592 36.1077 89.2539 35.303C87.8486 34.4983 86.7492 33.382 85.9559 31.954C85.1739 30.526 84.7829 28.8827 84.7829 27.024C84.7829 25.018 85.1682 23.2783 85.9389 21.805C86.7096 20.3203 87.7806 19.17 89.1519 18.354C90.5232 17.538 92.1099 17.13 93.9119 17.13C95.8159 17.13 97.4309 17.5777 98.7569 18.473C100.094 19.357 101.086 20.6093 101.732 22.23C102.378 23.8507 102.622 25.7603 102.463 27.959H98.3999V26.463C98.3886 24.4683 98.0372 23.012 97.3459 22.094C96.6546 21.176 95.5666 20.717 94.0819 20.717C92.4046 20.717 91.1579 21.2383 90.3419 22.281C89.5259 23.3123 89.1179 24.8253 89.1179 26.82C89.1179 28.6787 89.5259 30.118 90.3419 31.138C91.1579 32.158 92.3479 32.668 93.9119 32.668C94.9206 32.668 95.7876 32.447 96.5129 32.005C97.2496 31.5517 97.8162 30.9 98.2129 30.05L102.259 31.274C101.556 32.9287 100.468 34.215 98.9949 35.133C97.5329 36.051 95.9179 36.51 94.1499 36.51ZM87.8259 27.959V24.865H100.457V27.959H87.8259Z" fill="black"/>
</svg>
